<?xml version="1.0" standalone="no"?>
<!DOCTYPE svg PUBLIC "-//W3C//DTD SVG 20010904//EN"
 "http://www.w3.org/TR/2001/REC-SVG-20010904/DTD/svg10.dtd">
<svg version="1.0" xmlns="http://www.w3.org/2000/svg"
 width="500.000000pt" height="500.000000pt" viewBox="0 0 500.000000 500.000000"
 preserveAspectRatio="xMidYMid meet">
<metadata>
Created by potrace 1.14, written by Peter Selinger 2001-2017
</metadata>
<g transform="translate(0.000000,500.000000) scale(0.100000,-0.100000)"
fill="#000000" stroke="none">
<path d="M0 2500 l0 -2500 2500 0 2500 0 0 2500 0 2500 -2500 0 -2500 0 0
-2500z m1826 1019 c98 -13 227 -56 301 -100 91 -54 185 -154 226 -240 19 -41
38 -89 42 -106 6 -29 4 -34 -21 -43 -39 -15 -51 -7 -59 38 -9 57 -72 157 -133
212 -92 85 -210 139 -354 161 -91 14 -273 6 -353 -16 -171 -46 -315 -157 -383
-293 -36 -75 -37 -78 -37 -191 0 -156 21 -209 116 -303 97 -95 231 -159 489
-233 297 -85 411 -150 439 -252 42 -149 -55 -278 -246 -328 -78 -21 -263 -20
-334 1 -123 37 -206 103 -230 183 -14 47 -13 49 28 57 28 6 32 3 42 -28 49
-147 357 -206 559 -107 77 37 112 84 112 147 0 115 -67 158 -395 256 -305 91
-500 198 -580 319 -60 91 -78 156 -78 287 0 93 4 126 21 174 31 84 73 145 150
218 163 153 417 223 678 187z m1874 -697 c0 -560 -2 -677 -15 -725 -55 -210
-219 -310 -469 -285 -138 14 -260 104 -307 226 -22 60 -45 203 -35 228 3 8 19
14 39 14 l34 0 6 -79 c9 -138 74 -244 177 -290 92 -40 252 -36 341 9 50 26
104 91 131 159 23 56 23 57 26 734 l3 677 35 0 34 0 0 -668z m160 -10 c0 -638
-1 -683 -19 -754 -28 -110 -65 -174 -145 -254 -76 -76 -155 -121 -256 -145
-76 -18 -241 -16 -319 5 -241 63 -398 271 -404 534 l-2 77 38 3 37 3 0 -63 c1
-288 203 -495 486 -497 241 -2 414 114 486 328 22 65 23 73 26 754 l3 687 35
0 34 0 0 -678z m158 -39 l-3 -718 -28 -80 c-44 -125 -92 -202 -181 -290 -125
-125 -265 -187 -455 -201 -355 -27 -649 160 -757 481 -27 81 -53 268 -41 298
4 11 18 17 40 17 l34 0 5 -102 c15 -281 174 -499 425 -584 104 -36 271 -44
388 -20 239 49 406 210 481 461 16 54 18 125 21 758 l4 697 35 0 35 0 -3 -717z
m-2139 571 c181 -41 335 -177 357 -313 5 -31 3 -41 -7 -41 -8 0 -24 -3 -36 -6
-18 -5 -23 1 -37 49 -92 315 -744 348 -911 46 -27 -48 -30 -63 -30 -139 0 -68
5 -93 22 -126 52 -98 190 -175 435 -245 181 -51 257 -78 351 -127 157 -80 232
-179 244 -320 21 -251 -171 -438 -487 -473 -315 -35 -600 110 -654 334 -5 23
-3 29 19 37 38 15 55 12 55 -7 0 -37 49 -120 96 -164 99 -92 251 -136 434
-126 172 10 293 58 380 154 64 69 84 130 78 232 -6 93 -29 143 -95 201 -71 62
-187 113 -386 170 -433 123 -572 235 -571 460 0 74 4 94 30 151 102 217 403
324 713 253z m-17 -164 c113 -35 194 -105 218 -189 8 -29 6 -33 -16 -41 -41
-16 -51 -12 -58 22 -9 43 -73 102 -143 129 -76 29 -240 32 -324 7 -187 -58
-226 -207 -74 -290 28 -15 122 -50 210 -79 264 -84 305 -99 418 -157 234 -120
336 -273 337 -502 0 -155 -48 -269 -165 -386 -143 -145 -317 -208 -575 -208
-174 0 -280 22 -410 86 -152 75 -285 234 -306 366 -5 32 -3 42 7 42 8 0 23 3
35 6 18 5 23 -1 32 -38 27 -106 118 -221 225 -286 71 -43 172 -78 267 -93 94
-15 304 -6 385 16 172 47 315 157 383 293 l37 76 0 130 c0 126 -1 134 -31 196
-74 156 -227 253 -550 350 -274 82 -370 124 -424 186 -90 103 -46 258 94 331
108 56 304 72 428 33z"/>
</g>
</svg>
